<?xml version="1.0" encoding="iso-8859-1"?>
<svg height="800px" width="800px" version="1.1" id="Layer_1" xmlns="http://www.w3.org/2000/svg" xmlns:xlink="http://www.w3.org/1999/xlink" 
	 viewBox="0 0 512 512" xml:space="preserve">
<polygon style="fill:#00B6D7;" points="398.019,30.644 333.541,159.711 256.057,30.644 "/>
<polygon style="fill:#2DB2C8;" points="398.019,30.644 501.295,159.711 333.541,159.711 "/>
<g>
	<polygon style="fill:#31C0D8;" points="501.295,159.711 256.057,476.042 333.541,159.711 	"/>
	<polygon style="fill:#31C0D8;" points="191.467,159.711 256.057,476.042 10.707,159.711 	"/>
</g>
<polygon style="fill:#00B6D7;" points="333.541,159.711 256.057,476.042 191.467,159.711 "/>
<polygon style="fill:#31C0D8;" points="256.057,30.644 333.541,159.711 191.467,159.711 "/>
<polygon style="fill:#2DB2C8;" points="256.057,30.644 191.467,159.711 113.982,30.644 "/>
<polygon style="fill:#00B6D7;" points="113.982,30.644 191.467,159.711 10.707,159.711 "/>
<path d="M402.06,22.234H109.941L0,159.629l256.058,330.137L512,159.628L402.06,22.234z M322.823,168.121l-66.021,269.531
	l-55.033-269.531H322.823z M205.08,151.301l51.646-103.202l61.958,103.202H205.08z M270.914,39.054h113.501l-51.55,103.192
	L270.914,39.054z M190.798,142.256L128.84,39.054h113.602L190.798,142.256z M176.609,151.301H28.207l84.788-105.963L176.609,151.301
	z M184.601,168.121l56.001,274.274L27.873,168.121H184.601z M340.139,168.121h143.993L273.629,439.648L340.139,168.121z
	 M347.143,151.301l52.523-105.137l84.128,105.137H347.143z"/>
</svg>